<svg width="276" height="75" viewBox="0 0 276 75" fill="none" xmlns="http://www.w3.org/2000/svg">
<path d="M33.4339 57.5146C33.4339 51.8417 30.8702 47.4506 25.7428 44.3414C24.87 43.796 22.1426 42.4868 17.5607 40.414C13.6333 38.614 11.2332 36.7321 10.3604 34.7684C9.92405 33.8956 9.70586 32.941 9.70586 31.9046C9.70586 28.4136 11.2059 26.0408 14.206 24.7862C15.297 24.2953 16.4697 24.0498 17.7243 24.0498C21.3244 24.0498 24.1336 25.5226 26.1519 28.4682C26.37 28.7955 26.561 29.1227 26.7246 29.45L33.2703 25.9317C31.5248 21.5679 28.1428 18.7042 23.1245 17.3405C21.4335 16.9042 19.7426 16.686 18.0516 16.686C12.8696 16.686 8.58764 18.3497 5.20571 21.677C2.36925 24.6226 0.951021 28.1954 0.951021 32.3956C0.951021 38.1776 3.4602 42.5959 8.47854 45.6506C9.3513 46.196 12.1059 47.5324 16.7425 49.6598C20.6153 51.4598 23.0154 53.369 23.9427 55.3872C24.3791 56.3145 24.5973 57.3237 24.5973 58.4146C24.5973 61.9602 23.0972 64.3875 20.0971 65.6967C18.8971 66.1876 17.6425 66.4331 16.3333 66.4331C11.8605 66.3785 7.60579 65.0421 3.56929 62.4238L0.132812 68.6422C5.20571 72.2423 10.5513 74.0424 16.1697 74.0424C22.1154 74.0424 26.6973 72.0514 29.9156 68.0695C32.2611 65.1785 33.4339 61.6602 33.4339 57.5146Z" fill="black"/>
<path d="M35.0703 17.7496V25.0317H47.1798V72.9787H55.8528V25.0317H68.2896V17.7496H35.0703Z" fill="black"/>
<path d="M82.0355 72.9787V50.9689H88.0084H89.0721L97.2542 67.9877C99.1634 71.9151 101.945 73.906 105.6 73.9606C106.964 73.9606 108.245 73.7969 109.446 73.4697L109.036 67.1695H108.136C106.718 67.0604 105.654 66.324 104.945 64.9603L97.1724 49.3325C102.627 47.0961 105.927 43.0868 107.073 37.3048C107.345 35.9957 107.482 34.6593 107.482 33.2956C107.482 24.8953 103.173 19.8224 94.5541 18.0769C92.5359 17.6951 90.2994 17.5042 87.8448 17.5042C82.5537 17.5042 77.7263 17.586 73.3625 17.7496V72.9787H82.0355ZM87.9266 24.7044C93.7632 24.7044 97.1724 26.7227 98.1542 30.7592C98.427 31.7956 98.5633 32.9683 98.5633 34.2775C98.5633 38.8594 96.5724 41.805 92.5904 43.1141C91.3358 43.4959 89.9449 43.6869 88.4176 43.6869H82.0355V24.8681C84.5447 24.759 86.5084 24.7044 87.9266 24.7044Z" fill="black"/>
<path d="M119.591 72.9787L123.191 60.7874H142.665L146.183 72.9787H155.183L138.656 18.0769C141.274 16.2769 142.61 13.604 142.665 10.0585C142.665 6.07652 141.028 3.32188 137.756 1.79456C136.446 1.19454 135.083 0.894531 133.665 0.894531C130.337 0.894531 127.773 2.17639 125.973 4.74011C124.937 6.32198 124.419 8.14932 124.419 10.2221C124.473 13.5495 125.592 16.0587 127.773 17.7496L110.836 72.9787H119.591ZM129.573 38.9412C129.901 37.7958 130.528 35.3139 131.455 31.4955C132.164 28.6591 132.683 26.6408 133.01 25.4408C134.919 33.132 136.01 37.4957 136.283 38.5321L140.783 54.1599H125.073L129.573 38.9412ZM129.655 10.2221C129.655 7.98568 130.555 6.56745 132.355 5.96743C132.737 5.85833 133.119 5.80378 133.501 5.80378C135.301 5.80378 136.501 6.64927 137.101 8.34023C137.319 8.94025 137.428 9.56755 137.428 10.2221C137.428 12.4586 136.501 13.8768 134.646 14.4768C134.265 14.5859 133.883 14.6404 133.501 14.6404C131.755 14.6404 130.583 13.795 129.983 12.104C129.764 11.504 129.655 10.8767 129.655 10.2221Z" fill="black"/>
<path d="M187.912 72.9787V65.6967H169.175V17.7496H160.502V72.9787H187.912Z" fill="black"/>
<path d="M197.567 72.9787L201.167 60.7874H220.64L224.158 72.9787H233.159L216.549 17.7496H205.749L188.812 72.9787H197.567ZM207.549 38.9412C207.876 37.7958 208.503 35.3139 209.431 31.4955C210.14 28.6591 210.658 26.6408 210.985 25.4408C212.894 33.132 213.985 37.4957 214.258 38.5321L218.758 54.1599H203.049L207.549 38.9412Z" fill="black"/>
<path d="M247.723 72.9787V50.9689H253.696H254.759L262.942 67.9877C264.851 71.9151 267.633 73.906 271.287 73.9606C272.651 73.9606 273.933 73.7969 275.133 73.4697L274.724 67.1695H273.824C272.405 67.0604 271.342 66.324 270.633 64.9603L262.86 49.3325C268.314 47.0961 271.615 43.0868 272.76 37.3048C273.033 35.9957 273.169 34.6593 273.169 33.2956C273.169 24.8953 268.86 19.8224 260.241 18.0769C258.223 17.6951 255.987 17.5042 253.532 17.5042C248.241 17.5042 243.414 17.586 239.05 17.7496V72.9787H247.723ZM253.614 24.7044C259.45 24.7044 262.86 26.7227 263.842 30.7592C264.114 31.7956 264.251 32.9683 264.251 34.2775C264.251 38.8594 262.26 41.805 258.278 43.1141C257.023 43.4959 255.632 43.6869 254.105 43.6869H247.723V24.8681C250.232 24.759 252.196 24.7044 253.614 24.7044Z" fill="black"/>
</svg>
